<svg xmlns="http://www.w3.org/2000/svg" version="1.1" xmlns:xlink="http://www.w3.org/1999/xlink" xmlns:svgjs="http://svgjs.dev/svgjs" width="1440" height="560" preserveAspectRatio="none" viewBox="0 0 1440 560">
    <g mask="url(&quot;#SvgjsMask1038&quot;)" fill="none">
        <path d="M-50.42 377.06L-50.42 377.06" stroke="rgba(0, 0, 0, 1)" stroke-width="1.5"></path>
        <path d="M-50.42 377.06L-89.4 497.25" stroke="rgba(0, 0, 0, 1)" stroke-width="1.5"></path>
        <path d="M-50.42 377.06L49.65 490.66" stroke="rgba(0, 0, 0, 1)" stroke-width="1.5"></path>
        <path d="M-50.42 377.06L99.11 348.32" stroke="rgba(0, 0, 0, 1)" stroke-width="1.5"></path>
        <path d="M-50.42 377.06L-108.82 647.75" stroke="rgba(0, 0, 0, 1)" stroke-width="1.5"></path>
        <path d="M-50.42 377.06L190.49 556.86" stroke="rgba(0, 0, 0, 1)" stroke-width="1.5"></path>
        <path d="M-50.42 377.06L256.85 371.73" stroke="rgba(0, 0, 0, 1)" stroke-width="1.5"></path>
        <path d="M-89.4 497.25L-89.4 497.25" stroke="rgba(0, 0, 0, 1)" stroke-width="1.5"></path>
        <path d="M-89.4 497.25L49.65 490.66" stroke="rgba(0, 0, 0, 1)" stroke-width="1.5"></path>
        <path d="M-89.4 497.25L-108.82 647.75" stroke="rgba(0, 0, 0, 1)" stroke-width="1.5"></path>
        <path d="M-89.4 497.25L66.66 677.04" stroke="rgba(0, 0, 0, 1)" stroke-width="1.5"></path>
        <path d="M-89.4 497.25L99.11 348.32" stroke="rgba(0, 0, 0, 1)" stroke-width="1.5"></path>
        <path d="M-89.4 497.25L190.49 556.86" stroke="rgba(0, 0, 0, 1)" stroke-width="1.5"></path>
        <path d="M-108.82 647.75L-108.82 647.75" stroke="rgba(0, 0, 0, 1)" stroke-width="1.5"></path>
        <path d="M-108.82 647.75L66.66 677.04" stroke="rgba(0, 0, 0, 1)" stroke-width="1.5"></path>
        <path d="M99.11 348.32L99.11 348.32" stroke="rgba(0, 0, 0, 1)" stroke-width="1.5"></path>
        <path d="M99.11 348.32L49.65 490.66" stroke="rgba(0, 0, 0, 1)" stroke-width="1.5"></path>
        <path d="M99.11 348.32L256.85 371.73" stroke="rgba(0, 0, 0, 1)" stroke-width="1.5"></path>
        <path d="M99.11 348.32L190.49 556.86" stroke="rgba(0, 0, 0, 1)" stroke-width="1.5"></path>
        <path d="M99.11 348.32L373.9 404.4" stroke="rgba(0, 0, 0, 1)" stroke-width="1.5"></path>
        <path d="M49.65 490.66L49.65 490.66" stroke="rgba(0, 0, 0, 1)" stroke-width="1.5"></path>
        <path d="M49.65 490.66L190.49 556.86" stroke="rgba(0, 0, 0, 1)" stroke-width="1.5"></path>
        <path d="M49.65 490.66L66.66 677.04" stroke="rgba(0, 0, 0, 1)" stroke-width="1.5"></path>
        <path d="M66.66 677.04L66.66 677.04" stroke="rgba(0, 0, 0, 1)" stroke-width="1.5"></path>
        <path d="M66.66 677.04L189.49 712.41" stroke="rgba(0, 0, 0, 1)" stroke-width="1.5"></path>
        <path d="M66.66 677.04L190.49 556.86" stroke="rgba(0, 0, 0, 1)" stroke-width="1.5"></path>
        <path d="M256.85 371.73L256.85 371.73" stroke="rgba(0, 0, 0, 1)" stroke-width="1.5"></path>
        <path d="M256.85 371.73L373.9 404.4" stroke="rgba(0, 0, 0, 1)" stroke-width="1.5"></path>
        <path d="M256.85 371.73L393.47 512.59" stroke="rgba(0, 0, 0, 1)" stroke-width="1.5"></path>
        <path d="M256.85 371.73L190.49 556.86" stroke="rgba(0, 0, 0, 1)" stroke-width="1.5"></path>
        <path d="M256.85 371.73L49.65 490.66" stroke="rgba(0, 0, 0, 1)" stroke-width="1.5"></path>
        <path d="M256.85 371.73L522.62 355.57" stroke="rgba(0, 0, 0, 1)" stroke-width="1.5"></path>
        <path d="M190.49 556.86L190.49 556.86" stroke="rgba(0, 0, 0, 1)" stroke-width="1.5"></path>
        <path d="M190.49 556.86L189.49 712.41" stroke="rgba(0, 0, 0, 1)" stroke-width="1.5"></path>
        <path d="M189.49 712.41L189.49 712.41" stroke="rgba(0, 0, 0, 1)" stroke-width="1.5"></path>
        <path d="M189.49 712.41L387.15 702.89" stroke="rgba(0, 0, 0, 1)" stroke-width="1.5"></path>
        <path d="M189.49 712.41L49.65 490.66" stroke="rgba(0, 0, 0, 1)" stroke-width="1.5"></path>
        <path d="M189.49 712.41L393.47 512.59" stroke="rgba(0, 0, 0, 1)" stroke-width="1.5"></path>
        <path d="M189.49 712.41L-108.82 647.75" stroke="rgba(0, 0, 0, 1)" stroke-width="1.5"></path>
        <path d="M373.9 404.4L373.9 404.4" stroke="rgba(0, 0, 0, 1)" stroke-width="1.5"></path>
        <path d="M373.9 404.4L393.47 512.59" stroke="rgba(0, 0, 0, 1)" stroke-width="1.5"></path>
        <path d="M373.9 404.4L495.24 501.03" stroke="rgba(0, 0, 0, 1)" stroke-width="1.5"></path>
        <path d="M373.9 404.4L522.62 355.57" stroke="rgba(0, 0, 0, 1)" stroke-width="1.5"></path>
        <path d="M373.9 404.4L190.49 556.86" stroke="rgba(0, 0, 0, 1)" stroke-width="1.5"></path>
        <path d="M393.47 512.59L393.47 512.59" stroke="rgba(0, 0, 0, 1)" stroke-width="1.5"></path>
        <path d="M393.47 512.59L495.24 501.03" stroke="rgba(0, 0, 0, 1)" stroke-width="1.5"></path>
        <path d="M387.15 702.89L387.15 702.89" stroke="rgba(0, 0, 0, 1)" stroke-width="1.5"></path>
        <path d="M387.15 702.89L524.48 673.54" stroke="rgba(0, 0, 0, 1)" stroke-width="1.5"></path>
        <path d="M387.15 702.89L393.47 512.59" stroke="rgba(0, 0, 0, 1)" stroke-width="1.5"></path>
        <path d="M387.15 702.89L495.24 501.03" stroke="rgba(0, 0, 0, 1)" stroke-width="1.5"></path>
        <path d="M387.15 702.89L190.49 556.86" stroke="rgba(0, 0, 0, 1)" stroke-width="1.5"></path>
        <path d="M387.15 702.89L373.9 404.4" stroke="rgba(0, 0, 0, 1)" stroke-width="1.5"></path>
        <path d="M522.62 355.57L522.62 355.57" stroke="rgba(0, 0, 0, 1)" stroke-width="1.5"></path>
        <path d="M522.62 355.57L495.24 501.03" stroke="rgba(0, 0, 0, 1)" stroke-width="1.5"></path>
        <path d="M522.62 355.57L709.84 402" stroke="rgba(0, 0, 0, 1)" stroke-width="1.5"></path>
        <path d="M522.62 355.57L393.47 512.59" stroke="rgba(0, 0, 0, 1)" stroke-width="1.5"></path>
        <path d="M522.62 355.57L709.14 234" stroke="rgba(0, 0, 0, 1)" stroke-width="1.5"></path>
        <path d="M495.24 501.03L495.24 501.03" stroke="rgba(0, 0, 0, 1)" stroke-width="1.5"></path>
        <path d="M495.24 501.03L524.48 673.54" stroke="rgba(0, 0, 0, 1)" stroke-width="1.5"></path>
        <path d="M495.24 501.03L696.73 558.37" stroke="rgba(0, 0, 0, 1)" stroke-width="1.5"></path>
        <path d="M524.48 673.54L524.48 673.54" stroke="rgba(0, 0, 0, 1)" stroke-width="1.5"></path>
        <path d="M524.48 673.54L692.55 657.52" stroke="rgba(0, 0, 0, 1)" stroke-width="1.5"></path>
        <path d="M709.14 234L709.14 234" stroke="rgba(0, 0, 0, 1)" stroke-width="1.5"></path>
        <path d="M709.14 234L852.12 249.27" stroke="rgba(0, 0, 0, 1)" stroke-width="1.5"></path>
        <path d="M709.14 234L789.12 362.1" stroke="rgba(0, 0, 0, 1)" stroke-width="1.5"></path>
        <path d="M709.14 234L709.84 402" stroke="rgba(0, 0, 0, 1)" stroke-width="1.5"></path>
        <path d="M709.84 402L709.84 402" stroke="rgba(0, 0, 0, 1)" stroke-width="1.5"></path>
        <path d="M709.84 402L789.12 362.1" stroke="rgba(0, 0, 0, 1)" stroke-width="1.5"></path>
        <path d="M709.84 402L696.73 558.37" stroke="rgba(0, 0, 0, 1)" stroke-width="1.5"></path>
        <path d="M696.73 558.37L696.73 558.37" stroke="rgba(0, 0, 0, 1)" stroke-width="1.5"></path>
        <path d="M696.73 558.37L791.97 548.88" stroke="rgba(0, 0, 0, 1)" stroke-width="1.5"></path>
        <path d="M696.73 558.37L692.55 657.52" stroke="rgba(0, 0, 0, 1)" stroke-width="1.5"></path>
        <path d="M696.73 558.37L837.84 643.15" stroke="rgba(0, 0, 0, 1)" stroke-width="1.5"></path>
        <path d="M696.73 558.37L524.48 673.54" stroke="rgba(0, 0, 0, 1)" stroke-width="1.5"></path>
        <path d="M692.55 657.52L692.55 657.52" stroke="rgba(0, 0, 0, 1)" stroke-width="1.5"></path>
        <path d="M692.55 657.52L837.84 643.15" stroke="rgba(0, 0, 0, 1)" stroke-width="1.5"></path>
        <path d="M692.55 657.52L791.97 548.88" stroke="rgba(0, 0, 0, 1)" stroke-width="1.5"></path>
        <path d="M852.12 249.27L852.12 249.27" stroke="rgba(0, 0, 0, 1)" stroke-width="1.5"></path>
        <path d="M852.12 249.27L974.04 210.56" stroke="rgba(0, 0, 0, 1)" stroke-width="1.5"></path>
        <path d="M852.12 249.27L789.12 362.1" stroke="rgba(0, 0, 0, 1)" stroke-width="1.5"></path>
        <path d="M852.12 249.27L960.32 409.09" stroke="rgba(0, 0, 0, 1)" stroke-width="1.5"></path>
        <path d="M852.12 249.27L709.84 402" stroke="rgba(0, 0, 0, 1)" stroke-width="1.5"></path>
        <path d="M852.12 249.27L963.56 45.07" stroke="rgba(0, 0, 0, 1)" stroke-width="1.5"></path>
        <path d="M789.12 362.1L789.12 362.1" stroke="rgba(0, 0, 0, 1)" stroke-width="1.5"></path>
        <path d="M789.12 362.1L960.32 409.09" stroke="rgba(0, 0, 0, 1)" stroke-width="1.5"></path>
        <path d="M789.12 362.1L791.97 548.88" stroke="rgba(0, 0, 0, 1)" stroke-width="1.5"></path>
        <path d="M789.12 362.1L938.93 501.15" stroke="rgba(0, 0, 0, 1)" stroke-width="1.5"></path>
        <path d="M791.97 548.88L791.97 548.88" stroke="rgba(0, 0, 0, 1)" stroke-width="1.5"></path>
        <path d="M791.97 548.88L837.84 643.15" stroke="rgba(0, 0, 0, 1)" stroke-width="1.5"></path>
        <path d="M791.97 548.88L938.93 501.15" stroke="rgba(0, 0, 0, 1)" stroke-width="1.5"></path>
        <path d="M791.97 548.88L709.84 402" stroke="rgba(0, 0, 0, 1)" stroke-width="1.5"></path>
        <path d="M837.84 643.15L837.84 643.15" stroke="rgba(0, 0, 0, 1)" stroke-width="1.5"></path>
        <path d="M837.84 643.15L942.22 711.53" stroke="rgba(0, 0, 0, 1)" stroke-width="1.5"></path>
        <path d="M939.04 -79.81L939.04 -79.81" stroke="rgba(0, 0, 0, 1)" stroke-width="1.5"></path>
        <path d="M939.04 -79.81L963.56 45.07" stroke="rgba(0, 0, 0, 1)" stroke-width="1.5"></path>
        <path d="M939.04 -79.81L1137.41 -66.03" stroke="rgba(0, 0, 0, 1)" stroke-width="1.5"></path>
        <path d="M963.56 45.07L963.56 45.07" stroke="rgba(0, 0, 0, 1)" stroke-width="1.5"></path>
        <path d="M974.04 210.56L974.04 210.56" stroke="rgba(0, 0, 0, 1)" stroke-width="1.5"></path>
        <path d="M974.04 210.56L1138.94 196.41" stroke="rgba(0, 0, 0, 1)" stroke-width="1.5"></path>
        <path d="M974.04 210.56L963.56 45.07" stroke="rgba(0, 0, 0, 1)" stroke-width="1.5"></path>
        <path d="M974.04 210.56L960.32 409.09" stroke="rgba(0, 0, 0, 1)" stroke-width="1.5"></path>
        <path d="M974.04 210.56L1111.5 46.8" stroke="rgba(0, 0, 0, 1)" stroke-width="1.5"></path>
        <path d="M960.32 409.09L960.32 409.09" stroke="rgba(0, 0, 0, 1)" stroke-width="1.5"></path>
        <path d="M960.32 409.09L938.93 501.15" stroke="rgba(0, 0, 0, 1)" stroke-width="1.5"></path>
        <path d="M960.32 409.09L1099.9 499.84" stroke="rgba(0, 0, 0, 1)" stroke-width="1.5"></path>
        <path d="M938.93 501.15L938.93 501.15" stroke="rgba(0, 0, 0, 1)" stroke-width="1.5"></path>
        <path d="M938.93 501.15L1099.9 499.84" stroke="rgba(0, 0, 0, 1)" stroke-width="1.5"></path>
        <path d="M942.22 711.53L942.22 711.53" stroke="rgba(0, 0, 0, 1)" stroke-width="1.5"></path>
        <path d="M942.22 711.53L938.93 501.15" stroke="rgba(0, 0, 0, 1)" stroke-width="1.5"></path>
        <path d="M1137.41 -66.03L1137.41 -66.03" stroke="rgba(0, 0, 0, 1)" stroke-width="1.5"></path>
        <path d="M1137.41 -66.03L1111.5 46.8" stroke="rgba(0, 0, 0, 1)" stroke-width="1.5"></path>
        <path d="M1137.41 -66.03L1284.33 -41.12" stroke="rgba(0, 0, 0, 1)" stroke-width="1.5"></path>
        <path d="M1111.5 46.8L1111.5 46.8" stroke="rgba(0, 0, 0, 1)" stroke-width="1.5"></path>
        <path d="M1111.5 46.8L963.56 45.07" stroke="rgba(0, 0, 0, 1)" stroke-width="1.5"></path>
        <path d="M1111.5 46.8L1138.94 196.41" stroke="rgba(0, 0, 0, 1)" stroke-width="1.5"></path>
        <path d="M1111.5 46.8L1302.35 71.85" stroke="rgba(0, 0, 0, 1)" stroke-width="1.5"></path>
        <path d="M1138.94 196.41L1138.94 196.41" stroke="rgba(0, 0, 0, 1)" stroke-width="1.5"></path>
        <path d="M1138.94 196.41L1252.85 209.24" stroke="rgba(0, 0, 0, 1)" stroke-width="1.5"></path>
        <path d="M1153.93 381.75L1153.93 381.75" stroke="rgba(0, 0, 0, 1)" stroke-width="1.5"></path>
        <path d="M1153.93 381.75L1244.64 405.28" stroke="rgba(0, 0, 0, 1)" stroke-width="1.5"></path>
        <path d="M1153.93 381.75L1099.9 499.84" stroke="rgba(0, 0, 0, 1)" stroke-width="1.5"></path>
        <path d="M1153.93 381.75L1271.03 511.24" stroke="rgba(0, 0, 0, 1)" stroke-width="1.5"></path>
        <path d="M1153.93 381.75L1138.94 196.41" stroke="rgba(0, 0, 0, 1)" stroke-width="1.5"></path>
        <path d="M1153.93 381.75L960.32 409.09" stroke="rgba(0, 0, 0, 1)" stroke-width="1.5"></path>
        <path d="M1153.93 381.75L1252.85 209.24" stroke="rgba(0, 0, 0, 1)" stroke-width="1.5"></path>
        <path d="M1099.9 499.84L1099.9 499.84" stroke="rgba(0, 0, 0, 1)" stroke-width="1.5"></path>
        <path d="M1099.9 499.84L1152.22 659.65" stroke="rgba(0, 0, 0, 1)" stroke-width="1.5"></path>
        <path d="M1099.9 499.84L1271.03 511.24" stroke="rgba(0, 0, 0, 1)" stroke-width="1.5"></path>
        <path d="M1099.9 499.84L1244.64 405.28" stroke="rgba(0, 0, 0, 1)" stroke-width="1.5"></path>
        <path d="M1152.22 659.65L1152.22 659.65" stroke="rgba(0, 0, 0, 1)" stroke-width="1.5"></path>
        <path d="M1152.22 659.65L1271.03 511.24" stroke="rgba(0, 0, 0, 1)" stroke-width="1.5"></path>
        <path d="M1152.22 659.65L942.22 711.53" stroke="rgba(0, 0, 0, 1)" stroke-width="1.5"></path>
        <path d="M1152.22 659.65L938.93 501.15" stroke="rgba(0, 0, 0, 1)" stroke-width="1.5"></path>
        <path d="M1152.22 659.65L1244.64 405.28" stroke="rgba(0, 0, 0, 1)" stroke-width="1.5"></path>
        <path d="M1284.33 -41.12L1284.33 -41.12" stroke="rgba(0, 0, 0, 1)" stroke-width="1.5"></path>
        <path d="M1284.33 -41.12L1394.94 -64.26" stroke="rgba(0, 0, 0, 1)" stroke-width="1.5"></path>
        <path d="M1284.33 -41.12L1302.35 71.85" stroke="rgba(0, 0, 0, 1)" stroke-width="1.5"></path>
        <path d="M1284.33 -41.12L1111.5 46.8" stroke="rgba(0, 0, 0, 1)" stroke-width="1.5"></path>
        <path d="M1302.35 71.85L1302.35 71.85" stroke="rgba(0, 0, 0, 1)" stroke-width="1.5"></path>
        <path d="M1302.35 71.85L1403.02 112.43" stroke="rgba(0, 0, 0, 1)" stroke-width="1.5"></path>
        <path d="M1302.35 71.85L1252.85 209.24" stroke="rgba(0, 0, 0, 1)" stroke-width="1.5"></path>
        <path d="M1302.35 71.85L1394.94 -64.26" stroke="rgba(0, 0, 0, 1)" stroke-width="1.5"></path>
        <path d="M1302.35 71.85L1446.6 201.38" stroke="rgba(0, 0, 0, 1)" stroke-width="1.5"></path>
        <path d="M1252.85 209.24L1252.85 209.24" stroke="rgba(0, 0, 0, 1)" stroke-width="1.5"></path>
        <path d="M1252.85 209.24L1403.02 112.43" stroke="rgba(0, 0, 0, 1)" stroke-width="1.5"></path>
        <path d="M1252.85 209.24L1446.6 201.38" stroke="rgba(0, 0, 0, 1)" stroke-width="1.5"></path>
        <path d="M1252.85 209.24L1244.64 405.28" stroke="rgba(0, 0, 0, 1)" stroke-width="1.5"></path>
        <path d="M1244.64 405.28L1244.64 405.28" stroke="rgba(0, 0, 0, 1)" stroke-width="1.5"></path>
        <path d="M1271.03 511.24L1271.03 511.24" stroke="rgba(0, 0, 0, 1)" stroke-width="1.5"></path>
        <path d="M1271.03 511.24L1244.64 405.28" stroke="rgba(0, 0, 0, 1)" stroke-width="1.5"></path>
        <path d="M1394.94 -64.26L1394.94 -64.26" stroke="rgba(0, 0, 0, 1)" stroke-width="1.5"></path>
        <path d="M1394.94 -64.26L1403.02 112.43" stroke="rgba(0, 0, 0, 1)" stroke-width="1.5"></path>
        <path d="M1403.02 112.43L1403.02 112.43" stroke="rgba(0, 0, 0, 1)" stroke-width="1.5"></path>
        <path d="M1403.02 112.43L1446.6 201.38" stroke="rgba(0, 0, 0, 1)" stroke-width="1.5"></path>
        <path d="M1403.02 112.43L1538.95 49.16" stroke="rgba(0, 0, 0, 1)" stroke-width="1.5"></path>
        <path d="M1446.6 201.38L1446.6 201.38" stroke="rgba(0, 0, 0, 1)" stroke-width="1.5"></path>
        <path d="M1446.6 201.38L1411.97 351.2" stroke="rgba(0, 0, 0, 1)" stroke-width="1.5"></path>
        <path d="M1446.6 201.38L1538.95 49.16" stroke="rgba(0, 0, 0, 1)" stroke-width="1.5"></path>
        <path d="M1411.97 351.2L1411.97 351.2" stroke="rgba(0, 0, 0, 1)" stroke-width="1.5"></path>
        <path d="M1411.97 351.2L1428.57 498.55" stroke="rgba(0, 0, 0, 1)" stroke-width="1.5"></path>
        <path d="M1411.97 351.2L1563.89 356.53" stroke="rgba(0, 0, 0, 1)" stroke-width="1.5"></path>
        <path d="M1428.57 498.55L1428.57 498.55" stroke="rgba(0, 0, 0, 1)" stroke-width="1.5"></path>
        <path d="M1428.57 498.55L1540.66 519.56" stroke="rgba(0, 0, 0, 1)" stroke-width="1.5"></path>
        <path d="M1428.57 498.55L1447.12 655.18" stroke="rgba(0, 0, 0, 1)" stroke-width="1.5"></path>
        <path d="M1428.57 498.55L1271.03 511.24" stroke="rgba(0, 0, 0, 1)" stroke-width="1.5"></path>
        <path d="M1447.12 655.18L1447.12 655.18" stroke="rgba(0, 0, 0, 1)" stroke-width="1.5"></path>
        <path d="M1447.12 655.18L1608.71 651.36" stroke="rgba(0, 0, 0, 1)" stroke-width="1.5"></path>
        <path d="M1447.12 655.18L1540.66 519.56" stroke="rgba(0, 0, 0, 1)" stroke-width="1.5"></path>
        <path d="M1447.12 655.18L1271.03 511.24" stroke="rgba(0, 0, 0, 1)" stroke-width="1.5"></path>
        <path d="M1447.12 655.18L1152.22 659.65" stroke="rgba(0, 0, 0, 1)" stroke-width="1.5"></path>
        <path d="M1447.12 655.18L1411.97 351.2" stroke="rgba(0, 0, 0, 1)" stroke-width="1.5"></path>
        <path d="M1538.95 49.16L1538.95 49.16" stroke="rgba(0, 0, 0, 1)" stroke-width="1.5"></path>
        <path d="M1538.95 49.16L1394.94 -64.26" stroke="rgba(0, 0, 0, 1)" stroke-width="1.5"></path>
        <path d="M1538.95 49.16L1302.35 71.85" stroke="rgba(0, 0, 0, 1)" stroke-width="1.5"></path>
        <path d="M1538.95 49.16L1284.33 -41.12" stroke="rgba(0, 0, 0, 1)" stroke-width="1.5"></path>
        <path d="M1563.89 356.53L1563.89 356.53" stroke="rgba(0, 0, 0, 1)" stroke-width="1.5"></path>
        <path d="M1563.89 356.53L1540.66 519.56" stroke="rgba(0, 0, 0, 1)" stroke-width="1.5"></path>
        <path d="M1563.89 356.53L1446.6 201.38" stroke="rgba(0, 0, 0, 1)" stroke-width="1.5"></path>
        <path d="M1540.66 519.56L1540.66 519.56" stroke="rgba(0, 0, 0, 1)" stroke-width="1.5"></path>
        <path d="M1540.66 519.56L1608.71 651.36" stroke="rgba(0, 0, 0, 1)" stroke-width="1.5"></path>
        <path d="M1608.71 651.36L1608.71 651.36" stroke="rgba(0, 0, 0, 1)" stroke-width="1.5"></path>
        <path d="M1608.71 651.36L1428.57 498.55" stroke="rgba(0, 0, 0, 1)" stroke-width="1.5"></path>
        <path d="M1608.71 651.36L1563.89 356.53" stroke="rgba(0, 0, 0, 1)" stroke-width="1.5"></path>
        <path d="M1608.71 651.36L1411.97 351.2" stroke="rgba(0, 0, 0, 1)" stroke-width="1.5"></path>
        <path d="M1608.71 651.36L1271.03 511.24" stroke="rgba(0, 0, 0, 1)" stroke-width="1.5"></path>
        <circle r="5" cx="-50.42" cy="377.06" fill="rgba(0, 0, 0, 1)"></circle>
        <circle r="5" cx="-89.4" cy="497.25" fill="rgba(0, 0, 0, 1)"></circle>
        <circle r="5" cx="-108.82" cy="647.75" fill="rgba(0, 0, 0, 1)"></circle>
        <circle r="5" cx="99.11" cy="348.32" fill="rgba(0, 0, 0, 1)"></circle>
        <circle r="5" cx="49.65" cy="490.66" fill="rgba(0, 0, 0, 1)"></circle>
        <circle r="5" cx="66.66" cy="677.04" fill="rgba(0, 0, 0, 1)"></circle>
        <circle r="5" cx="256.85" cy="371.73" fill="rgba(0, 0, 0, 1)"></circle>
        <circle r="5" cx="190.49" cy="556.86" fill="rgba(0, 0, 0, 1)"></circle>
        <circle r="5" cx="189.49" cy="712.41" fill="rgba(0, 0, 0, 1)"></circle>
        <circle r="5" cx="373.9" cy="404.4" fill="rgba(0, 0, 0, 1)"></circle>
        <circle r="5" cx="393.47" cy="512.59" fill="rgba(0, 0, 0, 1)"></circle>
        <circle r="5" cx="387.15" cy="702.89" fill="rgba(0, 0, 0, 1)"></circle>
        <circle r="5" cx="522.62" cy="355.57" fill="rgba(0, 0, 0, 1)"></circle>
        <circle r="5" cx="495.24" cy="501.03" fill="rgba(0, 0, 0, 1)"></circle>
        <circle r="5" cx="524.48" cy="673.54" fill="rgba(0, 0, 0, 1)"></circle>
        <circle r="5" cx="709.14" cy="234" fill="rgba(0, 0, 0, 1)"></circle>
        <circle r="5" cx="709.84" cy="402" fill="rgba(0, 0, 0, 1)"></circle>
        <circle r="5" cx="696.73" cy="558.37" fill="rgba(0, 0, 0, 1)"></circle>
        <circle r="5" cx="692.55" cy="657.52" fill="rgba(0, 0, 0, 1)"></circle>
        <circle r="5" cx="852.12" cy="249.27" fill="rgba(0, 0, 0, 1)"></circle>
        <circle r="5" cx="789.12" cy="362.1" fill="rgba(0, 0, 0, 1)"></circle>
        <circle r="5" cx="791.97" cy="548.88" fill="rgba(0, 0, 0, 1)"></circle>
        <circle r="5" cx="837.84" cy="643.15" fill="rgba(0, 0, 0, 1)"></circle>
        <circle r="5" cx="939.04" cy="-79.81" fill="rgba(0, 0, 0, 1)"></circle>
        <circle r="5" cx="963.56" cy="45.07" fill="rgba(0, 0, 0, 1)"></circle>
        <circle r="5" cx="974.04" cy="210.56" fill="rgba(0, 0, 0, 1)"></circle>
        <circle r="5" cx="960.32" cy="409.09" fill="rgba(0, 0, 0, 1)"></circle>
        <circle r="5" cx="938.93" cy="501.15" fill="rgba(0, 0, 0, 1)"></circle>
        <circle r="5" cx="942.22" cy="711.53" fill="rgba(0, 0, 0, 1)"></circle>
        <circle r="5" cx="1137.41" cy="-66.03" fill="rgba(0, 0, 0, 1)"></circle>
        <circle r="5" cx="1111.5" cy="46.8" fill="rgba(0, 0, 0, 1)"></circle>
        <circle r="5" cx="1138.94" cy="196.41" fill="rgba(0, 0, 0, 1)"></circle>
        <circle r="5" cx="1153.93" cy="381.75" fill="rgba(0, 0, 0, 1)"></circle>
        <circle r="5" cx="1099.9" cy="499.84" fill="rgba(0, 0, 0, 1)"></circle>
        <circle r="5" cx="1152.22" cy="659.65" fill="rgba(0, 0, 0, 1)"></circle>
        <circle r="5" cx="1284.33" cy="-41.12" fill="rgba(0, 0, 0, 1)"></circle>
        <circle r="5" cx="1302.35" cy="71.85" fill="rgba(0, 0, 0, 1)"></circle>
        <circle r="5" cx="1252.85" cy="209.24" fill="rgba(0, 0, 0, 1)"></circle>
        <circle r="5" cx="1244.64" cy="405.28" fill="rgba(0, 0, 0, 1)"></circle>
        <circle r="5" cx="1271.03" cy="511.24" fill="rgba(0, 0, 0, 1)"></circle>
        <circle r="5" cx="1394.94" cy="-64.26" fill="rgba(0, 0, 0, 1)"></circle>
        <circle r="5" cx="1403.02" cy="112.43" fill="rgba(0, 0, 0, 1)"></circle>
        <circle r="5" cx="1446.6" cy="201.38" fill="rgba(0, 0, 0, 1)"></circle>
        <circle r="5" cx="1411.97" cy="351.2" fill="rgba(0, 0, 0, 1)"></circle>
        <circle r="5" cx="1428.57" cy="498.55" fill="rgba(0, 0, 0, 1)"></circle>
        <circle r="5" cx="1447.12" cy="655.18" fill="rgba(0, 0, 0, 1)"></circle>
        <circle r="5" cx="1538.95" cy="49.16" fill="rgba(0, 0, 0, 1)"></circle>
        <circle r="5" cx="1563.89" cy="356.53" fill="rgba(0, 0, 0, 1)"></circle>
        <circle r="5" cx="1540.66" cy="519.56" fill="rgba(0, 0, 0, 1)"></circle>
        <circle r="5" cx="1608.71" cy="651.36" fill="rgba(0, 0, 0, 1)"></circle>
        <path d="M359.66 537.04L359.66 537.04" stroke="hsl(0, 0%, 53.5%)" stroke-width="1.5"></path>
        <path d="M359.66 537.04L192.09 487.73" stroke="hsl(0, 0%, 53.5%)" stroke-width="1.5"></path>
        <path d="M359.66 537.04L378.25 711.98" stroke="hsl(0, 0%, 53.5%)" stroke-width="1.5"></path>
        <path d="M359.66 537.04L212.45 650.12" stroke="hsl(0, 0%, 53.5%)" stroke-width="1.5"></path>
        <path d="M557.74 518.38L557.74 518.38" stroke="hsl(0, 0%, 53.5%)" stroke-width="1.5"></path>
        <path d="M557.74 518.38L530.84 647.89" stroke="hsl(0, 0%, 53.5%)" stroke-width="1.5"></path>
        <path d="M557.74 518.38L696.73 551.48" stroke="hsl(0, 0%, 53.5%)" stroke-width="1.5"></path>
        <path d="M557.74 518.38L660.2 408.5" stroke="hsl(0, 0%, 53.5%)" stroke-width="1.5"></path>
        <path d="M557.74 518.38L658.32 638.72" stroke="hsl(0, 0%, 53.5%)" stroke-width="1.5"></path>
        <path d="M557.74 518.38L359.66 537.04" stroke="hsl(0, 0%, 53.5%)" stroke-width="1.5"></path>
        <path d="M557.74 518.38L820.13 512.09" stroke="hsl(0, 0%, 53.5%)" stroke-width="1.5"></path>
        <path d="M660.2 408.5L660.2 408.5" stroke="hsl(0, 0%, 53.5%)" stroke-width="1.5"></path>
        <path d="M660.2 408.5L796.52 355.06" stroke="hsl(0, 0%, 53.5%)" stroke-width="1.5"></path>
        <path d="M660.2 408.5L696.73 551.48" stroke="hsl(0, 0%, 53.5%)" stroke-width="1.5"></path>
        <path d="M660.2 408.5L820.13 512.09" stroke="hsl(0, 0%, 53.5%)" stroke-width="1.5"></path>
        <path d="M696.73 551.48L696.73 551.48" stroke="hsl(0, 0%, 53.5%)" stroke-width="1.5"></path>
        <path d="M696.73 551.48L658.32 638.72" stroke="hsl(0, 0%, 53.5%)" stroke-width="1.5"></path>
        <path d="M696.73 551.48L820.13 512.09" stroke="hsl(0, 0%, 53.5%)" stroke-width="1.5"></path>
        <path d="M696.73 551.48L805.48 665.92" stroke="hsl(0, 0%, 53.5%)" stroke-width="1.5"></path>
        <path d="M696.73 551.48L530.84 647.89" stroke="hsl(0, 0%, 53.5%)" stroke-width="1.5"></path>
        <path d="M658.32 638.72L658.32 638.72" stroke="hsl(0, 0%, 53.5%)" stroke-width="1.5"></path>
        <path d="M658.32 638.72L530.84 647.89" stroke="hsl(0, 0%, 53.5%)" stroke-width="1.5"></path>
        <path d="M805.48 665.92L805.48 665.92" stroke="hsl(0, 0%, 53.5%)" stroke-width="1.5"></path>
        <path d="M805.48 665.92L658.32 638.72" stroke="hsl(0, 0%, 53.5%)" stroke-width="1.5"></path>
        <path d="M805.48 665.92L820.13 512.09" stroke="hsl(0, 0%, 53.5%)" stroke-width="1.5"></path>
        <path d="M805.48 665.92L966.05 512.35" stroke="hsl(0, 0%, 53.5%)" stroke-width="1.5"></path>
        <path d="M805.48 665.92L530.84 647.89" stroke="hsl(0, 0%, 53.5%)" stroke-width="1.5"></path>
        <path d="M805.48 665.92L557.74 518.38" stroke="hsl(0, 0%, 53.5%)" stroke-width="1.5"></path>
        <path d="M1128.04 644.7L1128.04 644.7" stroke="hsl(0, 0%, 53.5%)" stroke-width="1.5"></path>
        <path d="M1128.04 644.7L1102.85 501.04" stroke="hsl(0, 0%, 53.5%)" stroke-width="1.5"></path>
        <path d="M1128.04 644.7L1307.31 555.29" stroke="hsl(0, 0%, 53.5%)" stroke-width="1.5"></path>
        <path d="M1128.04 644.7L966.05 512.35" stroke="hsl(0, 0%, 53.5%)" stroke-width="1.5"></path>
        <path d="M1128.04 644.7L1118.71 395.49" stroke="hsl(0, 0%, 53.5%)" stroke-width="1.5"></path>
        <path d="M1389.73 -47.24L1389.73 -47.24" stroke="hsl(0, 0%, 53.5%)" stroke-width="1.5"></path>
        <path d="M1389.73 -47.24L1255.18 -70.08" stroke="hsl(0, 0%, 53.5%)" stroke-width="1.5"></path>
        <path d="M1389.73 -47.24L1457.22 77.91" stroke="hsl(0, 0%, 53.5%)" stroke-width="1.5"></path>
        <path d="M1537.56 -51.99L1537.56 -51.99" stroke="hsl(0, 0%, 53.5%)" stroke-width="1.5"></path>
        <path d="M1537.56 -51.99L1592.07 81.69" stroke="hsl(0, 0%, 53.5%)" stroke-width="1.5"></path>
        <path d="M1537.56 -51.99L1389.73 -47.24" stroke="hsl(0, 0%, 53.5%)" stroke-width="1.5"></path>
        <path d="M1537.56 -51.99L1457.22 77.91" stroke="hsl(0, 0%, 53.5%)" stroke-width="1.5"></path>
        <path d="M-72.89 498.91L-72.89 498.91" stroke="hsl(0, 0%, 53.5%)" stroke-width="1.5"></path>
        <path d="M-72.89 498.91L-81.16 639.23" stroke="hsl(0, 0%, 53.5%)" stroke-width="1.5"></path>
        <path d="M-72.89 498.91L99.67 497.74" stroke="hsl(0, 0%, 53.5%)" stroke-width="1.5"></path>
        <path d="M-72.89 498.91L48.34 680.83" stroke="hsl(0, 0%, 53.5%)" stroke-width="1.5"></path>
        <path d="M-81.16 639.23L-81.16 639.23" stroke="hsl(0, 0%, 53.5%)" stroke-width="1.5"></path>
        <path d="M-81.16 639.23L48.34 680.83" stroke="hsl(0, 0%, 53.5%)" stroke-width="1.5"></path>
        <path d="M-81.16 639.23L99.67 497.74" stroke="hsl(0, 0%, 53.5%)" stroke-width="1.5"></path>
        <path d="M-81.16 639.23L212.45 650.12" stroke="hsl(0, 0%, 53.5%)" stroke-width="1.5"></path>
        <path d="M-81.16 639.23L192.09 487.73" stroke="hsl(0, 0%, 53.5%)" stroke-width="1.5"></path>
        <path d="M99.67 497.74L99.67 497.74" stroke="hsl(0, 0%, 53.5%)" stroke-width="1.5"></path>
        <path d="M99.67 497.74L192.09 487.73" stroke="hsl(0, 0%, 53.5%)" stroke-width="1.5"></path>
        <path d="M99.67 497.74L212.45 650.12" stroke="hsl(0, 0%, 53.5%)" stroke-width="1.5"></path>
        <path d="M48.34 680.83L48.34 680.83" stroke="hsl(0, 0%, 53.5%)" stroke-width="1.5"></path>
        <path d="M48.34 680.83L212.45 650.12" stroke="hsl(0, 0%, 53.5%)" stroke-width="1.5"></path>
        <path d="M48.34 680.83L99.67 497.74" stroke="hsl(0, 0%, 53.5%)" stroke-width="1.5"></path>
        <path d="M48.34 680.83L192.09 487.73" stroke="hsl(0, 0%, 53.5%)" stroke-width="1.5"></path>
        <path d="M48.34 680.83L378.25 711.98" stroke="hsl(0, 0%, 53.5%)" stroke-width="1.5"></path>
        <path d="M192.09 487.73L192.09 487.73" stroke="hsl(0, 0%, 53.5%)" stroke-width="1.5"></path>
        <path d="M192.09 487.73L212.45 650.12" stroke="hsl(0, 0%, 53.5%)" stroke-width="1.5"></path>
        <path d="M212.45 650.12L212.45 650.12" stroke="hsl(0, 0%, 53.5%)" stroke-width="1.5"></path>
        <path d="M212.45 650.12L378.25 711.98" stroke="hsl(0, 0%, 53.5%)" stroke-width="1.5"></path>
        <path d="M378.25 711.98L378.25 711.98" stroke="hsl(0, 0%, 53.5%)" stroke-width="1.5"></path>
        <path d="M378.25 711.98L530.84 647.89" stroke="hsl(0, 0%, 53.5%)" stroke-width="1.5"></path>
        <path d="M378.25 711.98L557.74 518.38" stroke="hsl(0, 0%, 53.5%)" stroke-width="1.5"></path>
        <path d="M378.25 711.98L658.32 638.72" stroke="hsl(0, 0%, 53.5%)" stroke-width="1.5"></path>
        <path d="M530.84 647.89L530.84 647.89" stroke="hsl(0, 0%, 53.5%)" stroke-width="1.5"></path>
        <path d="M530.84 647.89L359.66 537.04" stroke="hsl(0, 0%, 53.5%)" stroke-width="1.5"></path>
        <path d="M530.84 647.89L660.2 408.5" stroke="hsl(0, 0%, 53.5%)" stroke-width="1.5"></path>
        <path d="M796.52 355.06L796.52 355.06" stroke="hsl(0, 0%, 53.5%)" stroke-width="1.5"></path>
        <path d="M796.52 355.06L820.13 512.09" stroke="hsl(0, 0%, 53.5%)" stroke-width="1.5"></path>
        <path d="M796.52 355.06L960.24 388.15" stroke="hsl(0, 0%, 53.5%)" stroke-width="1.5"></path>
        <path d="M820.13 512.09L820.13 512.09" stroke="hsl(0, 0%, 53.5%)" stroke-width="1.5"></path>
        <path d="M960.24 388.15L960.24 388.15" stroke="hsl(0, 0%, 53.5%)" stroke-width="1.5"></path>
        <path d="M960.24 388.15L966.05 512.35" stroke="hsl(0, 0%, 53.5%)" stroke-width="1.5"></path>
        <path d="M960.24 388.15L1118.71 395.49" stroke="hsl(0, 0%, 53.5%)" stroke-width="1.5"></path>
        <path d="M966.05 512.35L966.05 512.35" stroke="hsl(0, 0%, 53.5%)" stroke-width="1.5"></path>
        <path d="M966.05 512.35L1102.85 501.04" stroke="hsl(0, 0%, 53.5%)" stroke-width="1.5"></path>
        <path d="M966.05 512.35L820.13 512.09" stroke="hsl(0, 0%, 53.5%)" stroke-width="1.5"></path>
        <path d="M966.05 512.35L1118.71 395.49" stroke="hsl(0, 0%, 53.5%)" stroke-width="1.5"></path>
        <path d="M1097.57 250.35L1097.57 250.35" stroke="hsl(0, 0%, 53.5%)" stroke-width="1.5"></path>
        <path d="M1097.57 250.35L1118.71 395.49" stroke="hsl(0, 0%, 53.5%)" stroke-width="1.5"></path>
        <path d="M1097.57 250.35L1258.66 189.83" stroke="hsl(0, 0%, 53.5%)" stroke-width="1.5"></path>
        <path d="M1097.57 250.35L960.24 388.15" stroke="hsl(0, 0%, 53.5%)" stroke-width="1.5"></path>
        <path d="M1097.57 250.35L1102.85 501.04" stroke="hsl(0, 0%, 53.5%)" stroke-width="1.5"></path>
        <path d="M1118.71 395.49L1118.71 395.49" stroke="hsl(0, 0%, 53.5%)" stroke-width="1.5"></path>
        <path d="M1118.71 395.49L1102.85 501.04" stroke="hsl(0, 0%, 53.5%)" stroke-width="1.5"></path>
        <path d="M1102.85 501.04L1102.85 501.04" stroke="hsl(0, 0%, 53.5%)" stroke-width="1.5"></path>
        <path d="M1255.18 -70.08L1255.18 -70.08" stroke="hsl(0, 0%, 53.5%)" stroke-width="1.5"></path>
        <path d="M1255.18 -70.08L1294.52 88.97" stroke="hsl(0, 0%, 53.5%)" stroke-width="1.5"></path>
        <path d="M1255.18 -70.08L1457.22 77.91" stroke="hsl(0, 0%, 53.5%)" stroke-width="1.5"></path>
        <path d="M1255.18 -70.08L1258.66 189.83" stroke="hsl(0, 0%, 53.5%)" stroke-width="1.5"></path>
        <path d="M1255.18 -70.08L1537.56 -51.99" stroke="hsl(0, 0%, 53.5%)" stroke-width="1.5"></path>
        <path d="M1294.52 88.97L1294.52 88.97" stroke="hsl(0, 0%, 53.5%)" stroke-width="1.5"></path>
        <path d="M1294.52 88.97L1258.66 189.83" stroke="hsl(0, 0%, 53.5%)" stroke-width="1.5"></path>
        <path d="M1294.52 88.97L1457.22 77.91" stroke="hsl(0, 0%, 53.5%)" stroke-width="1.5"></path>
        <path d="M1294.52 88.97L1389.73 -47.24" stroke="hsl(0, 0%, 53.5%)" stroke-width="1.5"></path>
        <path d="M1258.66 189.83L1258.66 189.83" stroke="hsl(0, 0%, 53.5%)" stroke-width="1.5"></path>
        <path d="M1258.66 189.83L1457.57 203.72" stroke="hsl(0, 0%, 53.5%)" stroke-width="1.5"></path>
        <path d="M1258.66 189.83L1457.22 77.91" stroke="hsl(0, 0%, 53.5%)" stroke-width="1.5"></path>
        <path d="M1258.66 189.83L1118.71 395.49" stroke="hsl(0, 0%, 53.5%)" stroke-width="1.5"></path>
        <path d="M1307.31 555.29L1307.31 555.29" stroke="hsl(0, 0%, 53.5%)" stroke-width="1.5"></path>
        <path d="M1307.31 555.29L1435.35 525.28" stroke="hsl(0, 0%, 53.5%)" stroke-width="1.5"></path>
        <path d="M1307.31 555.29L1409.33 395.53" stroke="hsl(0, 0%, 53.5%)" stroke-width="1.5"></path>
        <path d="M1307.31 555.29L1434.18 700.98" stroke="hsl(0, 0%, 53.5%)" stroke-width="1.5"></path>
        <path d="M1307.31 555.29L1102.85 501.04" stroke="hsl(0, 0%, 53.5%)" stroke-width="1.5"></path>
        <path d="M1307.31 555.29L1118.71 395.49" stroke="hsl(0, 0%, 53.5%)" stroke-width="1.5"></path>
        <path d="M1457.22 77.91L1457.22 77.91" stroke="hsl(0, 0%, 53.5%)" stroke-width="1.5"></path>
        <path d="M1457.22 77.91L1457.57 203.72" stroke="hsl(0, 0%, 53.5%)" stroke-width="1.5"></path>
        <path d="M1457.22 77.91L1592.07 81.69" stroke="hsl(0, 0%, 53.5%)" stroke-width="1.5"></path>
        <path d="M1457.22 77.91L1538.05 196.5" stroke="hsl(0, 0%, 53.5%)" stroke-width="1.5"></path>
        <path d="M1457.57 203.72L1457.57 203.72" stroke="hsl(0, 0%, 53.5%)" stroke-width="1.5"></path>
        <path d="M1457.57 203.72L1538.05 196.5" stroke="hsl(0, 0%, 53.5%)" stroke-width="1.5"></path>
        <path d="M1457.57 203.72L1592.07 81.69" stroke="hsl(0, 0%, 53.5%)" stroke-width="1.5"></path>
        <path d="M1457.57 203.72L1409.33 395.53" stroke="hsl(0, 0%, 53.5%)" stroke-width="1.5"></path>
        <path d="M1409.33 395.53L1409.33 395.53" stroke="hsl(0, 0%, 53.5%)" stroke-width="1.5"></path>
        <path d="M1409.33 395.53L1435.35 525.28" stroke="hsl(0, 0%, 53.5%)" stroke-width="1.5"></path>
        <path d="M1409.33 395.53L1549.32 381.73" stroke="hsl(0, 0%, 53.5%)" stroke-width="1.5"></path>
        <path d="M1409.33 395.53L1564.72 490.23" stroke="hsl(0, 0%, 53.5%)" stroke-width="1.5"></path>
        <path d="M1435.35 525.28L1435.35 525.28" stroke="hsl(0, 0%, 53.5%)" stroke-width="1.5"></path>
        <path d="M1435.35 525.28L1564.72 490.23" stroke="hsl(0, 0%, 53.5%)" stroke-width="1.5"></path>
        <path d="M1435.35 525.28L1434.18 700.98" stroke="hsl(0, 0%, 53.5%)" stroke-width="1.5"></path>
        <path d="M1435.35 525.28L1549.32 381.73" stroke="hsl(0, 0%, 53.5%)" stroke-width="1.5"></path>
        <path d="M1435.35 525.28L1547.58 684.82" stroke="hsl(0, 0%, 53.5%)" stroke-width="1.5"></path>
        <path d="M1434.18 700.98L1434.18 700.98" stroke="hsl(0, 0%, 53.5%)" stroke-width="1.5"></path>
        <path d="M1434.18 700.98L1547.58 684.82" stroke="hsl(0, 0%, 53.5%)" stroke-width="1.5"></path>
        <path d="M1434.18 700.98L1564.72 490.23" stroke="hsl(0, 0%, 53.5%)" stroke-width="1.5"></path>
        <path d="M1434.18 700.98L1409.33 395.53" stroke="hsl(0, 0%, 53.5%)" stroke-width="1.5"></path>
        <path d="M1592.07 81.69L1592.07 81.69" stroke="hsl(0, 0%, 53.5%)" stroke-width="1.5"></path>
        <path d="M1592.07 81.69L1538.05 196.5" stroke="hsl(0, 0%, 53.5%)" stroke-width="1.5"></path>
        <path d="M1592.07 81.69L1389.73 -47.24" stroke="hsl(0, 0%, 53.5%)" stroke-width="1.5"></path>
        <path d="M1538.05 196.5L1538.05 196.5" stroke="hsl(0, 0%, 53.5%)" stroke-width="1.5"></path>
        <path d="M1538.05 196.5L1549.32 381.73" stroke="hsl(0, 0%, 53.5%)" stroke-width="1.5"></path>
        <path d="M1538.05 196.5L1409.33 395.53" stroke="hsl(0, 0%, 53.5%)" stroke-width="1.5"></path>
        <path d="M1549.32 381.73L1549.32 381.73" stroke="hsl(0, 0%, 53.5%)" stroke-width="1.5"></path>
        <path d="M1549.32 381.73L1564.72 490.23" stroke="hsl(0, 0%, 53.5%)" stroke-width="1.5"></path>
        <path d="M1549.32 381.73L1457.57 203.72" stroke="hsl(0, 0%, 53.5%)" stroke-width="1.5"></path>
        <path d="M1549.32 381.73L1307.31 555.29" stroke="hsl(0, 0%, 53.5%)" stroke-width="1.5"></path>
        <path d="M1564.72 490.23L1564.72 490.23" stroke="hsl(0, 0%, 53.5%)" stroke-width="1.5"></path>
        <path d="M1547.58 684.82L1547.58 684.82" stroke="hsl(0, 0%, 53.5%)" stroke-width="1.5"></path>
        <circle r="25" cx="359.66" cy="537.04" fill="url(&quot;#SvgjsRadialGradient1039&quot;)"></circle>
        <circle r="25" cx="557.74" cy="518.38" fill="url(&quot;#SvgjsRadialGradient1039&quot;)"></circle>
        <circle r="25" cx="660.2" cy="408.5" fill="url(&quot;#SvgjsRadialGradient1039&quot;)"></circle>
        <circle r="25" cx="696.73" cy="551.48" fill="url(&quot;#SvgjsRadialGradient1039&quot;)"></circle>
        <circle r="25" cx="658.32" cy="638.72" fill="url(&quot;#SvgjsRadialGradient1039&quot;)"></circle>
        <circle r="25" cx="805.48" cy="665.92" fill="url(&quot;#SvgjsRadialGradient1039&quot;)"></circle>
        <circle r="25" cx="1128.04" cy="644.7" fill="url(&quot;#SvgjsRadialGradient1039&quot;)"></circle>
        <circle r="25" cx="1389.73" cy="-47.24" fill="url(&quot;#SvgjsRadialGradient1039&quot;)"></circle>
        <circle r="25" cx="1537.56" cy="-51.99" fill="url(&quot;#SvgjsRadialGradient1039&quot;)"></circle>
        <circle r="5" cx="-72.89" cy="498.91" fill="#b4b4b4"></circle>
        <circle r="5" cx="-81.16" cy="639.23" fill="#b4b4b4"></circle>
        <circle r="5" cx="99.67" cy="497.74" fill="#b4b4b4"></circle>
        <circle r="5" cx="48.34" cy="680.83" fill="#b4b4b4"></circle>
        <circle r="5" cx="192.09" cy="487.73" fill="#b4b4b4"></circle>
        <circle r="5" cx="212.45" cy="650.12" fill="#b4b4b4"></circle>
        <circle r="5" cx="378.25" cy="711.98" fill="#b4b4b4"></circle>
        <circle r="5" cx="530.84" cy="647.89" fill="#b4b4b4"></circle>
        <circle r="5" cx="796.52" cy="355.06" fill="#b4b4b4"></circle>
        <circle r="5" cx="820.13" cy="512.09" fill="#b4b4b4"></circle>
        <circle r="5" cx="960.24" cy="388.15" fill="#b4b4b4"></circle>
        <circle r="5" cx="966.05" cy="512.35" fill="#b4b4b4"></circle>
        <circle r="5" cx="1097.57" cy="250.35" fill="#b4b4b4"></circle>
        <circle r="5" cx="1118.71" cy="395.49" fill="#b4b4b4"></circle>
        <circle r="5" cx="1102.85" cy="501.04" fill="#b4b4b4"></circle>
        <circle r="5" cx="1255.18" cy="-70.08" fill="#b4b4b4"></circle>
        <circle r="5" cx="1294.52" cy="88.97" fill="#b4b4b4"></circle>
        <circle r="5" cx="1258.66" cy="189.83" fill="#b4b4b4"></circle>
        <circle r="5" cx="1307.31" cy="555.29" fill="#b4b4b4"></circle>
        <circle r="5" cx="1457.22" cy="77.91" fill="#b4b4b4"></circle>
        <circle r="5" cx="1457.57" cy="203.72" fill="#b4b4b4"></circle>
        <circle r="5" cx="1409.33" cy="395.53" fill="#b4b4b4"></circle>
        <circle r="5" cx="1435.35" cy="525.28" fill="#b4b4b4"></circle>
        <circle r="5" cx="1434.18" cy="700.98" fill="#b4b4b4"></circle>
        <circle r="5" cx="1592.07" cy="81.69" fill="#b4b4b4"></circle>
        <circle r="5" cx="1538.05" cy="196.5" fill="#b4b4b4"></circle>
        <circle r="5" cx="1549.32" cy="381.73" fill="#b4b4b4"></circle>
        <circle r="5" cx="1564.72" cy="490.23" fill="#b4b4b4"></circle>
        <circle r="5" cx="1547.58" cy="684.82" fill="#b4b4b4"></circle>
    </g>
    <defs>
        <mask id="SvgjsMask1038">
            <rect width="1440" height="560" fill="#ffffff"></rect>
        </mask>
        <radialGradient id="SvgjsRadialGradient1039">
            <stop stop-color="#ffffff" offset="0.1"></stop>
            <stop stop-color="rgba(105, 105, 105, 1)" offset="0.2"></stop>
            <stop stop-color="rgba(105, 105, 105, 0)" offset="1"></stop>
        </radialGradient>
    </defs>
</svg>